# xmcd
#
# Track frame offsets:
#	150
#	9215
#	23920
#	43489
#	61065
#	77855
#	97439
#	132425
#	150673
#	168725
#	192159
#
# Disc length: 2706 seconds
# Revision: 5
# Processed by: cddbd v1.5.2PL0 Copyright (c) Steve Scherf et al.
# Submitted via: dBpowerAMP V12.0
#
DISCID=930a900b
DTITLE=TheEagles,LosAngeles,CA - Long Road Out Of Eden,CD1of2
DYEAR=2007
DGENRE=Rock
TTITLE0=No More Walks In The Wood
TTITLE1=How Long
TTITLE2=Busy Being Fabulous
TTITLE3=What Do I Do With My Heart
TTITLE4=Guilty Of The Crime
TTITLE5=I Don't  Want To Hear Any More
TTITLE6=Waiting In The Weeds
TTITLE7=No More Cloudy Days
TTITLE8=Fast Company
TTITLE9=Do Something
TTITLE10=You Are Not Alone
EXTD=
EXTT0=
EXTT1=
EXTT2=
EXTT3=
EXTT4=
EXTT5=
EXTT6=
EXTT7=
EXTT8=
EXTT9=
EXTT10=
PLAYORDER=
